<svg width="4445" height="1092" viewBox="0 0 4445 1092" fill="none" xmlns="http://www.w3.org/2000/svg">
<g clip-path="url(#clip0_104_18)">
<rect x="0.036377" y="-0.169922" width="170.072" height="1224.5" transform="rotate(-20 0.036377 -0.169922)" fill="white"/>
<rect x="328" y="-0.169922" width="170.072" height="1224.5" transform="rotate(-20 328 -0.169922)" fill="white"/>
<rect x="-327.964" y="-0.169922" width="170.072" height="1224.5" transform="rotate(-20 -327.964 -0.169922)" fill="white"/>
<rect x="655.036" y="-0.169922" width="170.072" height="1224.5" transform="rotate(-20 655.036 -0.169922)" fill="white"/>
<rect x="966" y="-0.169922" width="170.072" height="1224.5" transform="rotate(-20 966 -0.169922)" fill="white"/>
<rect x="1295" y="-0.169922" width="170.072" height="1224.5" transform="rotate(-20 1295 -0.169922)" fill="white"/>
<rect x="1622.04" y="-0.169922" width="170.072" height="1224.5" transform="rotate(-20 1622.04 -0.169922)" fill="white"/>
<rect x="1933" y="-0.169922" width="170.072" height="1224.5" transform="rotate(-20 1933 -0.169922)" fill="white"/>
<rect x="2261" y="-0.169922" width="170.072" height="1224.5" transform="rotate(-20 2261 -0.169922)" fill="white"/>
<rect x="2588.04" y="-0.169922" width="170.072" height="1224.5" transform="rotate(-20 2588.04 -0.169922)" fill="white"/>
<rect x="2899" y="-0.169922" width="170.072" height="1224.5" transform="rotate(-20 2899 -0.169922)" fill="white"/>
<rect x="3228" y="-0.169922" width="170.072" height="1224.5" transform="rotate(-20 3228 -0.169922)" fill="white"/>
<rect x="3555.04" y="-0.169922" width="170.072" height="1224.5" transform="rotate(-20 3555.04 -0.169922)" fill="white"/>
<rect x="3866" y="-0.169922" width="170.072" height="1224.5" transform="rotate(-20 3866 -0.169922)" fill="white"/>
<rect x="4177" y="-0.169922" width="170.072" height="1224.5" transform="rotate(-20 4177 -0.169922)" fill="white"/>
</g>
<defs>
<clipPath id="clip0_104_18">
<rect width="4445" height="1092" fill="white"/>
</clipPath>
</defs>
</svg>
