<svg width="277" height="149" viewBox="0 0 277 149" fill="none" xmlns="http://www.w3.org/2000/svg">
<path d="M86.6339 33.2953L121 33.2954L79.6359 109.416L44 109.5L86.6339 33.2953Z" fill="#FFE763"/>
<path d="M200.634 33.2953L235 33.2954L193.636 109.416L158 109.5L200.634 33.2953Z" fill="#FFE763"/>
<path d="M153.743 15.5908L189.006 15.1621L122.747 133.278L87.0868 133.553L153.743 15.5908Z" fill="#FFE763"/>
<path d="M7.77273 76H1.32102V58.5455H7.7642C9.54261 58.5455 11.0739 58.8949 12.358 59.5938C13.6477 60.2869 14.642 61.2869 15.3409 62.5938C16.0398 63.8949 16.3892 65.4517 16.3892 67.2642C16.3892 69.0824 16.0398 70.6449 15.3409 71.9517C14.6477 73.2585 13.6562 74.2614 12.3665 74.9602C11.0767 75.6534 9.54545 76 7.77273 76ZM5.53977 72.4034H7.6108C8.58807 72.4034 9.41477 72.2386 10.0909 71.9091C10.7727 71.5739 11.2869 71.0312 11.6335 70.2812C11.9858 69.5256 12.1619 68.5199 12.1619 67.2642C12.1619 66.0085 11.9858 65.0085 11.6335 64.2642C11.2813 63.5142 10.7614 62.9744 10.0739 62.6449C9.39205 62.3097 8.55114 62.142 7.55114 62.142H5.53977V72.4034ZM24.9716 76.2472C23.6023 76.2472 22.4205 75.9773 21.4261 75.4375C20.4375 74.892 19.6761 74.1165 19.142 73.1108C18.6136 72.0994 18.3494 70.8977 18.3494 69.5057C18.3494 68.1534 18.6165 66.9716 19.1506 65.9602C19.6847 64.9432 20.4375 64.1534 21.4091 63.5909C22.3807 63.0227 23.5256 62.7386 24.8438 62.7386C25.7756 62.7386 26.6278 62.8835 27.4006 63.1733C28.1733 63.4631 28.8409 63.892 29.4034 64.4602C29.9659 65.0284 30.4034 65.7301 30.7159 66.5653C31.0284 67.3949 31.1847 68.3466 31.1847 69.4205V70.4602H19.8068V68.0398H27.3068C27.3011 67.5966 27.196 67.2017 26.9915 66.8551C26.7869 66.5085 26.5057 66.2386 26.1477 66.0455C25.7955 65.8466 25.3892 65.7472 24.929 65.7472C24.4631 65.7472 24.0455 65.8523 23.6761 66.0625C23.3068 66.267 23.0142 66.5483 22.7983 66.9062C22.5824 67.2585 22.4688 67.6591 22.4574 68.108V70.571C22.4574 71.1051 22.5625 71.5739 22.7727 71.9773C22.983 72.375 23.2812 72.6847 23.6676 72.9062C24.054 73.1278 24.5142 73.2386 25.0483 73.2386C25.4176 73.2386 25.7528 73.1875 26.054 73.0852C26.3551 72.983 26.6136 72.8324 26.8295 72.6335C27.0455 72.4347 27.2074 72.1903 27.3153 71.9006L31.142 72.0114C30.983 72.8693 30.6335 73.6165 30.0938 74.2528C29.5597 74.8835 28.858 75.375 27.9886 75.7273C27.1193 76.0739 26.1136 76.2472 24.9716 76.2472ZM45.6605 62.9091L41.169 76H36.3963L31.9134 62.9091H36.3026L38.7145 71.9261H38.8509L41.2713 62.9091H45.6605ZM52.956 76.2472C51.5866 76.2472 50.4048 75.9773 49.4105 75.4375C48.4219 74.892 47.6605 74.1165 47.1264 73.1108C46.598 72.0994 46.3338 70.8977 46.3338 69.5057C46.3338 68.1534 46.6009 66.9716 47.1349 65.9602C47.669 64.9432 48.4219 64.1534 49.3935 63.5909C50.3651 63.0227 51.5099 62.7386 52.8281 62.7386C53.7599 62.7386 54.6122 62.8835 55.3849 63.1733C56.1577 63.4631 56.8253 63.892 57.3878 64.4602C57.9503 65.0284 58.3878 65.7301 58.7003 66.5653C59.0128 67.3949 59.169 68.3466 59.169 69.4205V70.4602H47.7912V68.0398H55.2912C55.2855 67.5966 55.1804 67.2017 54.9759 66.8551C54.7713 66.5085 54.4901 66.2386 54.1321 66.0455C53.7798 65.8466 53.3736 65.7472 52.9134 65.7472C52.4474 65.7472 52.0298 65.8523 51.6605 66.0625C51.2912 66.267 50.9986 66.5483 50.7827 66.9062C50.5668 67.2585 50.4531 67.6591 50.4418 68.108V70.571C50.4418 71.1051 50.5469 71.5739 50.7571 71.9773C50.9673 72.375 51.2656 72.6847 51.652 72.9062C52.0384 73.1278 52.4986 73.2386 53.0327 73.2386C53.402 73.2386 53.7372 73.1875 54.0384 73.0852C54.3395 72.983 54.598 72.8324 54.8139 72.6335C55.0298 72.4347 55.1918 72.1903 55.2997 71.9006L59.1264 72.0114C58.9673 72.8693 58.6179 73.6165 58.0781 74.2528C57.544 74.8835 56.8423 75.375 55.973 75.7273C55.1037 76.0739 54.098 76.2472 52.956 76.2472ZM65.4652 58.5455V76H61.2976V58.5455H65.4652ZM74.2287 76.2472C72.8537 76.2472 71.6719 75.9659 70.6832 75.4034C69.7003 74.8352 68.9418 74.0455 68.4077 73.0341C67.8793 72.017 67.6151 70.8381 67.6151 69.4972C67.6151 68.1506 67.8793 66.9716 68.4077 65.9602C68.9418 64.9432 69.7003 64.1534 70.6832 63.5909C71.6719 63.0227 72.8537 62.7386 74.2287 62.7386C75.6037 62.7386 76.7827 63.0227 77.7656 63.5909C78.7543 64.1534 79.5128 64.9432 80.0412 65.9602C80.5753 66.9716 80.8423 68.1506 80.8423 69.4972C80.8423 70.8381 80.5753 72.017 80.0412 73.0341C79.5128 74.0455 78.7543 74.8352 77.7656 75.4034C76.7827 75.9659 75.6037 76.2472 74.2287 76.2472ZM74.2543 73.1023C74.7543 73.1023 75.1776 72.9489 75.5241 72.642C75.8707 72.3352 76.1349 71.9091 76.3168 71.3636C76.5043 70.8182 76.598 70.1875 76.598 69.4716C76.598 68.7443 76.5043 68.108 76.3168 67.5625C76.1349 67.017 75.8707 66.5909 75.5241 66.2841C75.1776 65.9773 74.7543 65.8239 74.2543 65.8239C73.7372 65.8239 73.2997 65.9773 72.9418 66.2841C72.5895 66.5909 72.3196 67.017 72.1321 67.5625C71.9503 68.108 71.8594 68.7443 71.8594 69.4716C71.8594 70.1875 71.9503 70.8182 72.1321 71.3636C72.3196 71.9091 72.5895 72.3352 72.9418 72.642C73.2997 72.9489 73.7372 73.1023 74.2543 73.1023ZM82.9773 80.9091V62.9091H87.1023V65.1506H87.2301C87.4006 64.7528 87.642 64.3693 87.9545 64C88.2727 63.6307 88.6761 63.3295 89.1648 63.0966C89.6591 62.858 90.25 62.7386 90.9375 62.7386C91.8466 62.7386 92.696 62.9773 93.4858 63.4545C94.2812 63.9318 94.9233 64.6676 95.4119 65.6619C95.9006 66.6562 96.1449 67.9233 96.1449 69.4631C96.1449 70.946 95.9091 72.1875 95.4375 73.1875C94.9716 74.1875 94.3409 74.9375 93.5455 75.4375C92.7557 75.9375 91.8778 76.1875 90.9119 76.1875C90.2528 76.1875 89.6818 76.0795 89.1989 75.8636C88.7159 75.6477 88.3097 75.3636 87.9801 75.0114C87.6562 74.6591 87.4063 74.2812 87.2301 73.8778H87.1449V80.9091H82.9773ZM87.0597 69.4545C87.0597 70.1591 87.1534 70.7727 87.3409 71.2955C87.5341 71.8182 87.8097 72.2244 88.1676 72.5142C88.5312 72.7983 88.9659 72.9403 89.4716 72.9403C89.983 72.9403 90.4176 72.7983 90.7756 72.5142C91.1335 72.2244 91.4034 71.8182 91.5852 71.2955C91.7727 70.7727 91.8665 70.1591 91.8665 69.4545C91.8665 68.75 91.7727 68.1392 91.5852 67.6222C91.4034 67.1051 91.1335 66.7045 90.7756 66.4205C90.4233 66.1364 89.9886 65.9943 89.4716 65.9943C88.9602 65.9943 88.5256 66.1335 88.1676 66.4119C87.8097 66.6903 87.5341 67.0881 87.3409 67.6051C87.1534 68.1222 87.0597 68.7386 87.0597 69.4545ZM104.448 76.2472C103.079 76.2472 101.897 75.9773 100.903 75.4375C99.9141 74.892 99.1527 74.1165 98.6186 73.1108C98.0902 72.0994 97.826 70.8977 97.826 69.5057C97.826 68.1534 98.093 66.9716 98.6271 65.9602C99.1612 64.9432 99.9141 64.1534 100.886 63.5909C101.857 63.0227 103.002 62.7386 104.32 62.7386C105.252 62.7386 106.104 62.8835 106.877 63.1733C107.65 63.4631 108.317 63.892 108.88 64.4602C109.442 65.0284 109.88 65.7301 110.192 66.5653C110.505 67.3949 110.661 68.3466 110.661 69.4205V70.4602H99.2834V68.0398H106.783C106.778 67.5966 106.673 67.2017 106.468 66.8551C106.263 66.5085 105.982 66.2386 105.624 66.0455C105.272 65.8466 104.866 65.7472 104.406 65.7472C103.94 65.7472 103.522 65.8523 103.153 66.0625C102.783 66.267 102.491 66.5483 102.275 66.9062C102.059 67.2585 101.945 67.6591 101.934 68.108V70.571C101.934 71.1051 102.039 71.5739 102.249 71.9773C102.46 72.375 102.758 72.6847 103.144 72.9062C103.531 73.1278 103.991 73.2386 104.525 73.2386C104.894 73.2386 105.229 73.1875 105.531 73.0852C105.832 72.983 106.09 72.8324 106.306 72.6335C106.522 72.4347 106.684 72.1903 106.792 71.9006L110.619 72.0114C110.46 72.8693 110.11 73.6165 109.57 74.2528C109.036 74.8835 108.335 75.375 107.465 75.7273C106.596 76.0739 105.59 76.2472 104.448 76.2472ZM117.571 76.1875C116.605 76.1875 115.727 75.9375 114.938 75.4375C114.148 74.9375 113.517 74.1875 113.045 73.1875C112.574 72.1875 112.338 70.946 112.338 69.4631C112.338 67.9233 112.582 66.6562 113.071 65.6619C113.56 64.6676 114.199 63.9318 114.989 63.4545C115.784 62.9773 116.639 62.7386 117.554 62.7386C118.241 62.7386 118.83 62.858 119.318 63.0966C119.807 63.3295 120.21 63.6307 120.528 64C120.847 64.3693 121.088 64.7528 121.253 65.1506H121.338V58.5455H125.506V76H121.381V73.8778H121.253C121.077 74.2812 120.827 74.6591 120.503 75.0114C120.179 75.3636 119.773 75.6477 119.284 75.8636C118.801 76.0795 118.23 76.1875 117.571 76.1875ZM119.02 72.9403C119.526 72.9403 119.957 72.7983 120.315 72.5142C120.673 72.2244 120.949 71.8182 121.142 71.2955C121.335 70.7727 121.432 70.1591 121.432 69.4545C121.432 68.7386 121.335 68.1222 121.142 67.6051C120.955 67.0881 120.679 66.6903 120.315 66.4119C119.957 66.1335 119.526 65.9943 119.02 65.9943C118.503 65.9943 118.065 66.1364 117.707 66.4205C117.349 66.7045 117.077 67.1051 116.889 67.6222C116.707 68.1392 116.616 68.75 116.616 69.4545C116.616 70.1591 116.71 70.7727 116.898 71.2955C117.085 71.8182 117.355 72.2244 117.707 72.5142C118.065 72.7983 118.503 72.9403 119.02 72.9403ZM133.298 76V58.5455H137.465V65.1506H137.55C137.721 64.7528 137.962 64.3693 138.275 64C138.593 63.6307 138.996 63.3295 139.485 63.0966C139.979 62.858 140.57 62.7386 141.258 62.7386C142.167 62.7386 143.016 62.9773 143.806 63.4545C144.602 63.9318 145.244 64.6676 145.732 65.6619C146.221 66.6562 146.465 67.9233 146.465 69.4631C146.465 70.946 146.229 72.1875 145.758 73.1875C145.292 74.1875 144.661 74.9375 143.866 75.4375C143.076 75.9375 142.198 76.1875 141.232 76.1875C140.573 76.1875 140.002 76.0795 139.519 75.8636C139.036 75.6477 138.63 75.3636 138.3 75.0114C137.977 74.6591 137.727 74.2812 137.55 73.8778H137.423V76H133.298ZM137.38 69.4545C137.38 70.1591 137.474 70.7727 137.661 71.2955C137.854 71.8182 138.13 72.2244 138.488 72.5142C138.852 72.7983 139.286 72.9403 139.792 72.9403C140.303 72.9403 140.738 72.7983 141.096 72.5142C141.454 72.2244 141.724 71.8182 141.906 71.2955C142.093 70.7727 142.187 70.1591 142.187 69.4545C142.187 68.75 142.093 68.1392 141.906 67.6222C141.724 67.1051 141.454 66.7045 141.096 66.4205C140.744 66.1364 140.309 65.9943 139.792 65.9943C139.281 65.9943 138.846 66.1335 138.488 66.4119C138.13 66.6903 137.854 67.0881 137.661 67.6051C137.474 68.1222 137.38 68.7386 137.38 69.4545ZM150.776 80.9091C150.276 80.9091 149.804 80.8693 149.361 80.7898C148.918 80.7159 148.537 80.6165 148.219 80.4915L149.139 77.4659C149.548 77.6023 149.918 77.6818 150.247 77.7045C150.582 77.7273 150.869 77.6733 151.108 77.5426C151.352 77.4176 151.54 77.1932 151.67 76.8693L151.832 76.4773L147.179 62.9091H151.543L153.955 72.25H154.091L156.537 62.9091H160.926L155.991 77.2528C155.753 77.9688 155.415 78.5994 154.977 79.1449C154.545 79.696 153.986 80.1278 153.298 80.4403C152.616 80.7528 151.776 80.9091 150.776 80.9091ZM171.899 58.5455V76H167.68V58.5455H171.899ZM173.977 61.9716V58.5455H188.729V61.9716H183.437V76H179.278V61.9716H173.977ZM201.435 76.2642C200.207 76.2642 199.148 76.0455 198.256 75.608C197.369 75.1705 196.688 74.5824 196.21 73.8438C195.733 73.0994 195.494 72.2727 195.494 71.3636C195.494 70.6932 195.625 70.1023 195.886 69.5909C196.153 69.0739 196.52 68.5994 196.986 68.1676C197.457 67.7301 198.006 67.3011 198.631 66.8807L202.295 64.5369C202.71 64.2756 203.003 64 203.173 63.7102C203.349 63.4205 203.438 63.1307 203.438 62.8409C203.438 62.5284 203.315 62.2443 203.071 61.9886C202.832 61.733 202.477 61.608 202.006 61.6136C201.705 61.6136 201.443 61.6761 201.222 61.8011C201 61.9261 200.827 62.0938 200.702 62.304C200.582 62.5142 200.523 62.7528 200.523 63.0199C200.523 63.3665 200.622 63.7216 200.821 64.0852C201.02 64.4489 201.287 64.8352 201.622 65.2443C201.963 65.6534 202.341 66.1051 202.756 66.5994L211.116 76H206.872L199.875 68.4062C199.477 67.9631 199.06 67.4659 198.622 66.9148C198.185 66.3636 197.815 65.7614 197.514 65.108C197.213 64.4489 197.062 63.733 197.062 62.9602C197.062 62.0909 197.267 61.304 197.676 60.5994C198.085 59.8949 198.659 59.3352 199.398 58.9205C200.142 58.5 201.009 58.2898 201.997 58.2898C202.952 58.2898 203.776 58.4858 204.469 58.8778C205.162 59.2699 205.696 59.7898 206.071 60.4375C206.446 61.0852 206.634 61.7955 206.634 62.5682C206.634 63.3864 206.432 64.1392 206.028 64.8267C205.625 65.5085 205.054 66.1136 204.315 66.642L200.727 69.2074C200.347 69.4801 200.048 69.7727 199.832 70.0852C199.616 70.392 199.509 70.7273 199.509 71.0909C199.509 71.4659 199.597 71.7926 199.773 72.071C199.955 72.3494 200.21 72.5682 200.54 72.7273C200.869 72.8864 201.256 72.9659 201.699 72.9659C202.29 72.9659 202.881 72.8267 203.472 72.5483C204.063 72.2642 204.602 71.8665 205.091 71.3551C205.58 70.8381 205.972 70.2273 206.267 69.5227C206.562 68.8125 206.71 68.0341 206.71 67.1875H210.068C210.068 68.233 209.957 69.2045 209.736 70.1023C209.514 70.9943 209.182 71.7955 208.739 72.5057C208.301 73.2102 207.759 73.7955 207.111 74.2614C206.906 74.375 206.707 74.483 206.514 74.5852C206.321 74.6875 206.122 74.7955 205.918 74.9091C205.247 75.392 204.52 75.7386 203.736 75.9489C202.957 76.1591 202.19 76.2642 201.435 76.2642ZM221.774 58.5455V76H217.555V58.5455H221.774ZM231.096 69.7273H234.505L235.954 71.5767L237.854 73.7585L240.778 77.3636H236.96L234.914 74.9176L233.704 73.179L231.096 69.7273ZM240.897 67.2727C240.897 69.1932 240.528 70.821 239.789 72.1562C239.05 73.4915 238.05 74.5057 236.789 75.1989C235.533 75.892 234.124 76.2386 232.562 76.2386C230.994 76.2386 229.582 75.8892 228.326 75.1903C227.07 74.4915 226.073 73.4773 225.335 72.1477C224.602 70.8125 224.235 69.1875 224.235 67.2727C224.235 65.3523 224.602 63.7244 225.335 62.3892C226.073 61.054 227.07 60.0398 228.326 59.3466C229.582 58.6534 230.994 58.3068 232.562 58.3068C234.124 58.3068 235.533 58.6534 236.789 59.3466C238.05 60.0398 239.05 61.054 239.789 62.3892C240.528 63.7244 240.897 65.3523 240.897 67.2727ZM236.585 67.2727C236.585 66.1364 236.423 65.1761 236.099 64.392C235.781 63.608 235.32 63.0142 234.718 62.6108C234.121 62.2074 233.403 62.0057 232.562 62.0057C231.727 62.0057 231.008 62.2074 230.406 62.6108C229.803 63.0142 229.34 63.608 229.016 64.392C228.698 65.1761 228.539 66.1364 228.539 67.2727C228.539 68.4091 228.698 69.3693 229.016 70.1534C229.34 70.9375 229.803 71.5312 230.406 71.9347C231.008 72.3381 231.727 72.5398 232.562 72.5398C233.403 72.5398 234.121 72.3381 234.718 71.9347C235.32 71.5312 235.781 70.9375 236.099 70.1534C236.423 69.3693 236.585 68.4091 236.585 67.2727ZM246.128 76H241.594L247.483 58.5455H253.099L258.989 76H254.455L250.355 62.9432H250.219L246.128 76ZM245.523 69.1307H255V72.3352H245.523V69.1307ZM275.891 64.8693H271.63C271.573 64.4318 271.457 64.0369 271.281 63.6847C271.104 63.3324 270.871 63.0312 270.582 62.7812C270.292 62.5312 269.948 62.3409 269.55 62.2102C269.158 62.0739 268.724 62.0057 268.246 62.0057C267.4 62.0057 266.67 62.2131 266.056 62.6278C265.448 63.0426 264.979 63.642 264.65 64.4261C264.326 65.2102 264.164 66.1591 264.164 67.2727C264.164 68.4318 264.329 69.4034 264.658 70.1875C264.994 70.9659 265.462 71.554 266.065 71.9517C266.673 72.3437 267.391 72.5398 268.221 72.5398C268.687 72.5398 269.11 72.4801 269.491 72.3608C269.877 72.2415 270.215 72.0682 270.505 71.8409C270.8 71.608 271.042 71.3267 271.229 70.9972C271.423 70.6619 271.556 70.2841 271.63 69.8636L275.891 69.8892C275.817 70.6619 275.593 71.4233 275.218 72.1733C274.849 72.9233 274.34 73.608 273.692 74.2273C273.045 74.8409 272.255 75.3295 271.323 75.6932C270.397 76.0568 269.335 76.2386 268.136 76.2386C266.556 76.2386 265.141 75.892 263.891 75.1989C262.647 74.5 261.664 73.483 260.942 72.1477C260.221 70.8125 259.86 69.1875 259.86 67.2727C259.86 65.3523 260.227 63.7244 260.96 62.3892C261.692 61.054 262.684 60.0398 263.934 59.3466C265.184 58.6534 266.585 58.3068 268.136 58.3068C269.192 58.3068 270.17 58.4545 271.067 58.75C271.965 59.0398 272.755 59.4659 273.437 60.0284C274.119 60.5852 274.673 61.2699 275.099 62.0824C275.525 62.8949 275.789 63.8239 275.891 64.8693Z" fill="black"/>
</svg>
